<?xml version="1.0" encoding="UTF-8" standalone="no"?>
<svg width="14px" height="14px" viewBox="0 0 14 14" version="1.1" xmlns="http://www.w3.org/2000/svg" xmlns:xlink="http://www.w3.org/1999/xlink">
    <!-- Generator: Sketch 46.2 (44496) - http://www.bohemiancoding.com/sketch -->
    <title>14-Baby</title>
    <desc>Created with Sketch.</desc>
    <defs></defs>
    <g id="2" stroke="none" stroke-width="1" fill="none" fill-rule="evenodd">
        <g id="14-Baby" fill="#C5C3BE">
            <g id="Group-9" transform="translate(2.000000, 2.000000)">
                <path d="M6,3 L1,3 C1,5.209139 2.56689453,7 5,7 C7.43310547,7 9,5.209139 9,3 C9,1.57543945 7.65685425,1.72857604e-13 6,3.86135568e-13 L6,3 Z M8.00000024,7.80000019 C8.66274196,7.80000019 9.20000029,8.33725851 9.20000029,9.00000024 C9.20000029,9.66274196 8.66274196,10.2000003 8.00000024,10.2000003 C7.33725851,10.2000003 6.80000019,9.66274196 6.80000019,9.00000024 C6.80000019,8.33725851 7.33725851,7.80000019 8.00000024,7.80000019 Z M2,7.80000019 C2.66274173,7.80000019 3.20000005,8.33725851 3.20000005,9.00000024 C3.20000005,9.66274196 2.66274173,10.2000003 2,10.2000003 C1.33725827,10.2000003 0.799999952,9.66274196 0.799999952,9.00000024 C0.799999952,8.33725851 1.33725827,7.80000019 2,7.80000019 Z" id="Combined-Shape"></path>
            </g>
        </g>
    </g>
</svg>