<?xml version="1.0" encoding="UTF-8" standalone="no"?>
<svg width="16px" height="16px" viewBox="0 0 16 16" version="1.1" xmlns="http://www.w3.org/2000/svg" xmlns:xlink="http://www.w3.org/1999/xlink">
    <!-- Generator: Sketch 46.2 (44496) - http://www.bohemiancoding.com/sketch -->
    <title>Artboard Copy</title>
    <desc>Created with Sketch.</desc>
    <defs></defs>
    <g id="2" stroke="none" stroke-width="1" fill="none" fill-rule="evenodd">
        <g id="Artboard-Copy" fill-rule="nonzero" fill="#FFFFFF">
            <path d="M1,2 L15,2 C15.5522847,2 16,1.55228475 16,1 C16,0.44771525 15.5522847,-2.45312963e-13 15,-2.27373675e-13 L1,2.27373675e-13 C0.44771525,2.45312963e-13 -1.79392876e-14,0.44771525 0,1 C1.79392876e-14,1.55228475 0.44771525,2 1,2 Z" id="Path-2"></path>
            <path d="M1,9 L15,9 C15.5522847,9 16,8.55228475 16,8 C16,7.44771525 15.5522847,7 15,7 L1,7 C0.44771525,7 -1.79392876e-14,7.44771525 0,8 C1.79392876e-14,8.55228475 0.44771525,9 1,9 Z" id="Path-2-Copy"></path>
            <path d="M1,16 L15,16 C15.5522847,16 16,15.5522847 16,15 C16,14.4477153 15.5522847,14 15,14 L1,14 C0.44771525,14 -1.79392876e-14,14.4477153 0,15 C1.79392876e-14,15.5522847 0.44771525,16 1,16 Z" id="Path-2-Copy-2"></path>
        </g>
    </g>
</svg>