<?xml version="1.0" encoding="UTF-8" standalone="no"?>
<svg height="22px" version="1.1" viewBox="0 0 22 22" width="22px" xmlns="http://www.w3.org/2000/svg" xmlns:xlink="http://www.w3.org/1999/xlink">
  <defs/>
  <g stroke="none" stroke-width="1" fill="none" fill-rule="evenodd">
    <g>
      <rect fill="currentColor" height="1" width="16" x="3" y="17"/>
      <rect height="11" stroke="currentColor" width="19" x="1.5" y="4.5"/>
      <circle cx="11" cy="10" r="3.5" stroke="currentColor"/>
      <polygon fill="currentColor" points="18 9 18 7 16 7 16 6 19 6 19 9"/>
      <polygon fill="currentColor" points="5 9 5 7 3 7 3 6 6 6 6 9" transform="translate(4.500000, 7.500000) scale(-1, 1) translate(-4.500000, -7.500000) "/>
      <polygon fill="currentColor" points="18 14 18 12 16 12 16 11 19 11 19 14" transform="translate(17.500000, 12.500000) scale(1, -1) translate(-17.500000, -12.500000) "/>
      <polygon fill="currentColor" points="5 14 5 12 3 12 3 11 6 11 6 14" transform="translate(4.500000, 12.500000) scale(-1, -1) translate(-4.500000, -12.500000) "/>
    </g>
  <g>
</svg>
