<?xml version="1.0" encoding="UTF-8" standalone="no"?>
<svg width="14px" height="14px" viewBox="0 0 14 14" version="1.1" xmlns="http://www.w3.org/2000/svg" xmlns:xlink="http://www.w3.org/1999/xlink">
    <!-- Generator: Sketch 46.2 (44496) - http://www.bohemiancoding.com/sketch -->
    <title>14-OneMore</title>
    <desc>Created with Sketch.</desc>
    <defs></defs>
    <g id="2" stroke="none" stroke-width="1" fill="none" fill-rule="evenodd">
        <g id="14-OneMore" fill="#4BBF8D">
            <path d="M3,6 L1,6 L1,8 L3,8 L3,10 L5,10 L5,8 L7,8 L7,6 L5,6 L5,4 L3,4 L3,6 Z M10,8 C11.6568542,8 13,9.34314575 13,11 L13,12 L7,12 L7,11 C7,9.34314575 8.34314575,8 10,8 Z M10,7 C8.61928813,7 7.5,5.88071187 7.5,4.5 C7.5,3.11928813 8.61928813,2 10,2 C11.3807119,2 12.5,3.11928813 12.5,4.5 C12.5,5.88071187 11.3807119,7 10,7 Z" id="Combined-Shape"></path>
        </g>
    </g>
</svg>